<svg xmlns="http://www.w3.org/2000/svg" width="172" height="40" fill="none"><style>.B{fill-rule:evenodd}</style><g clip-path="url(#A)"><g fill="#f75d34"><path d="M23.73 39.859c9.484-1.654 16.693-9.936 16.693-19.887S33.214 1.739 23.73.057l-2.191 12.438a7.58 7.58 0 0 1 6.261 7.463c0 3.731-2.714 6.841-6.261 7.463l2.191 12.438zm-7.01.014 2.191-12.438A7.6 7.6 0 0 1 12.649 20c0-3.731 2.714-6.841 6.261-7.463L16.72.099C7.236 1.753.027 10.035.027 19.986S7.236 38.205 16.72 39.873z"/></g><g fill="#24272c"><path d="M48.422 20.261c0-5.71 4.24-10.078 10.092-10.078 3.52 0 6.615 1.753 8.311 4.495l-3.83 2.219c-.862-1.498-2.516-2.389-4.481-2.389-3.435 0-5.654 2.304-5.654 5.767s2.219 5.767 5.654 5.767c1.965 0 3.661-.89 4.481-2.389l3.83 2.219c-1.668 2.742-4.763 4.495-8.311 4.495-5.852-.014-10.092-4.396-10.092-10.106z"/><path d="M159.22 38.651c-.486 0-.932-.114-1.338-.342a2.56 2.56 0 0 1-.967-.944c-.237-.406-.356-.865-.356-1.375s.119-.959.356-1.36.56-.723.967-.951.852-.342 1.338-.342a2.66 2.66 0 0 1 1.338.342c.406.228.726.545.959.951s.357.855.357 1.36a2.67 2.67 0 0 1-.357 1.375 2.51 2.51 0 0 1-.959.944 2.686 2.686 0 0 1-1.338.342zm0-.929c.312 0 .587-.069.825-.208a1.48 1.48 0 0 0 .558-.609c.133-.263.2-.568.2-.914s-.067-.649-.2-.907a1.43 1.43 0 0 0-.558-.602 1.605 1.605 0 0 0-.825-.208 1.65 1.65 0 0 0-.833.208c-.238.139-.423.34-.557.602a1.94 1.94 0 0 0-.201.907c0 .347.067.652.201.914s.319.466.557.609a1.65 1.65 0 0 0 .833.208z" class="B"/><path d="M163.456 38.465c.292.124.619.186.981.186.382 0 .711-.069.989-.208s.488-.334.632-.572.215-.495.215-.773c0-.322-.077-.582-.23-.781s-.337-.347-.55-.446a6.03 6.03 0 0 0-.825-.297l-.58-.193a1.19 1.19 0 0 1-.342-.223.49.49 0 0 1-.134-.349c0-.198.059-.349.178-.453s.288-.156.491-.156c.233 0 .419.059.558.178a.58.58 0 0 1 .23.439h1.145c-.035-.466-.221-.828-.558-1.085s-.765-.394-1.301-.394c-.357 0-.674.062-.951.186s-.493.292-.647.52a1.4 1.4 0 0 0-.23.803c0 .327.074.59.223.788.153.193.334.339.542.439s.488.191.825.29l.58.193c.144.054.263.131.357.23s.141.225.141.379c0 .188-.069.342-.208.461s-.329.171-.572.171-.426-.062-.565-.186a.727.727 0 0 1-.223-.505h-1.115c.005.317.091.592.26.825s.396.411.684.535z"/><g class="B"><path d="m167.948 38.599.342-.989h2.067l.342.989h1.1l-1.866-5.196h-1.212l-1.866 5.196h1.093zm1.375-3.992.751 2.171h-1.501l.75-2.171zm-15.745 1.97 1.145 2.022h1.204l-1.241-2.104c.391-.104.686-.292.884-.565.199-.278.298-.587.298-.929a1.52 1.52 0 0 0-.216-.803 1.42 1.42 0 0 0-.632-.572 2.316 2.316 0 0 0-1.025-.216h-1.948v5.189h1.041v-2.022h.49zm.379-.781h-.869v-1.524h.869c.283 0 .493.067.632.201s.208.312.208.55c0 .243-.069.434-.208.572s-.349.201-.632.201zm-4.049 1.814h-2.067l-.342.989h-1.093l1.866-5.196h1.212l1.866 5.196h-1.1l-.342-.989zm-.283-.833-.751-2.171-.751 2.171h1.502z"/></g><path d="M145.703 38.599V33.41h-1.041v2.133h-2.223V33.41h-1.041v5.189h1.041v-2.208h2.223v2.208h1.041z"/><g class="B"><path d="M139.565 35.938a1.17 1.17 0 0 1 .721.439 1.28 1.28 0 0 1 .282.818c0 .277-.069.523-.208.736s-.329.372-.587.491-.562.178-.914.178h-2.238v-5.19h2.141c.352 0 .654.057.907.171a1.27 1.27 0 0 1 .58.476c.134.203.2.434.2.691 0 .302-.081.555-.245.758a1.27 1.27 0 0 1-.639.431zm-1.903-.387h.951c.248 0 .439-.054.573-.163s.2-.275.2-.483-.066-.369-.2-.483-.325-.171-.573-.171h-.951v1.301zm1.048 2.2c.253 0 .448-.059.587-.178s.216-.287.216-.506-.075-.396-.223-.52-.35-.193-.602-.193h-1.026v1.398h1.048zm-8.064-.141h2.066l.342.989h1.1l-1.865-5.196h-1.212l-1.866 5.196h1.093l.342-.989zm1.033-3.003.751 2.171h-1.502l.751-2.171z"/></g><path d="m127.527 38.599-1.889-2.312v2.312h-1.04V33.41h1.04v2.327l1.889-2.327h1.256l-2.141 2.572 2.2 2.617h-1.315z"/><path d="M118.622 37.61h2.067l.342.989h1.1l-1.866-5.196h-1.212l-1.865 5.196h1.092l.342-.989zm1.034-3.003.75 2.171h-1.501l.751-2.171z" class="B"/><path d="M116.478 33.41v5.189h-1.04V33.41h1.04z"/><path d="M113.358 33.73c-.411-.213-.89-.32-1.435-.32h-1.814v5.189h1.814c.545 0 1.024-.107 1.435-.32s.736-.513.959-.899c.228-.392.342-.847.342-1.368s-.114-.976-.342-1.368a2.25 2.25 0 0 0-.959-.914zm-.208 3.538c-.298.297-.719.446-1.264.446h-.736v-3.427h.736c.545 0 .966.154 1.264.461s.446.724.446 1.264-.149.959-.446 1.256z" class="B"/><path d="M109.082 38.599h-1.04l-2.357-3.561v3.561h-1.04v-5.196h1.04l2.357 3.568v-3.568h1.04v5.196zm-5.467 0V33.41h-1.041v5.189h1.041zm-5.727-4.349v1.301h1.747v.825h-1.747v1.375h1.97v.847h-3.011v-5.196h3.011v.848h-1.97zm-1.797 0v-.84h-3.806v.84h1.383v4.349h1.041V34.25h1.383zm-4.56-.84v5.189H90.49v-2.208h-2.223v2.208h-1.041V33.41h1.041v2.133h2.223V33.41h1.041z"/><g class="B"><path d="M85.147 33.73c-.411-.213-.89-.32-1.435-.32h-1.814v5.189h1.814c.545 0 1.023-.107 1.435-.32s.736-.513.959-.899.342-.847.342-1.368-.114-.976-.342-1.368a2.25 2.25 0 0 0-.959-.914zm-.208 3.538c-.297.297-.719.446-1.264.446h-.736v-3.427h.736c.545 0 .966.154 1.264.461s.446.724.446 1.264-.149.959-.446 1.256zm-5.18.342h-2.067l-.342.989h-1.093l1.866-5.196h1.212l1.866 5.196h-1.1l-.342-.989zm-.282-.833-.751-2.171-.751 2.171h1.502zm-4.011-.4a1.17 1.17 0 0 0-.721-.439c.268-.084.481-.228.639-.431a1.17 1.17 0 0 0 .245-.758 1.23 1.23 0 0 0-.201-.691c-.129-.203-.322-.362-.58-.476s-.555-.171-.907-.171H71.8V38.6h2.238a2.16 2.16 0 0 0 .914-.178 1.34 1.34 0 0 0 .587-.491 1.32 1.32 0 0 0 .208-.736 1.28 1.28 0 0 0-.282-.818zm-1.673-.825h-.952V34.25h.952c.248 0 .439.057.572.171s.201.275.201.483-.067.369-.201.483-.325.163-.572.163zm.684 2.022c-.139.119-.335.178-.587.178h-1.048v-1.398h1.026c.253 0 .453.064.602.193s.223.297.223.52-.072.387-.216.506zm8.293-7.193V15.243h-4.297v1.753c-.947-1.088-2.346-1.753-4.269-1.753-3.746 0-6.841 3.293-6.841 7.562s3.095 7.562 6.841 7.562c1.922 0 3.322-.664 4.269-1.753v1.767h4.297zM75.067 19.3c1.979 0 3.406 1.343 3.406 3.491s-1.428 3.491-3.406 3.491-3.406-1.343-3.406-3.491 1.428-3.491 3.406-3.491z"/></g><path d="M92.507 15.229v4.905c-1.795-.283-4.339.438-4.339 3.293v6.94h-4.339V15.229h4.353v2.855c.579-1.936 2.516-2.855 4.325-2.855z"/><g class="B"><path d="M101.667 30.367c5.569 0 9.809-4.382 9.809-10.092s-4.24-10.092-9.809-10.092h-8.085v20.184h8.085zm0-15.745c3.18 0 5.371 2.191 5.371 5.654s-2.205 5.654-5.371 5.654h-3.463V14.621h3.463zm18.33 11.886c1.174 0 2.177-.452 2.757-1.088l3.434 1.979c-1.399 1.951-3.519 2.954-6.247 2.954-4.891 0-7.929-3.293-7.929-7.562s3.095-7.562 7.618-7.562c4.184 0 7.279 3.237 7.279 7.562a8.43 8.43 0 0 1-.17 1.724h-10.162c.523 1.484 1.852 1.993 3.42 1.993zm2.644-5.216c-.453-1.654-1.753-2.262-3.039-2.262-1.626 0-2.728.806-3.124 2.262h6.163z"/></g><path d="m132.125 24.261 4.438 6.12v-.014h4.692l-5.173-7.802 5.046-7.336h-4.848l-4.155 6.064v-11.11h-4.156v20.198h4.156v-6.12zm23.52-3.294v9.414h-4.155v-8.806c0-1.724-1.075-2.516-2.403-2.516-1.527 0-2.573.89-2.573 2.855v8.467h-4.155V10.183h4.155v6.742c.749-1.032 2.135-1.696 3.958-1.696 2.799 0 5.173 1.993 5.173 5.739z"/><path d="M164.391 15.229c-4.212 0-7.59 3.293-7.59 7.562s3.378 7.562 7.59 7.562 7.59-3.293 7.59-7.562-3.378-7.562-7.59-7.562zm0 4.184c1.866 0 3.294 1.343 3.294 3.378s-1.428 3.378-3.294 3.378-3.293-1.343-3.293-3.378 1.428-3.378 3.293-3.378z" class="B"/></g></g><defs><clipPath id="A"><path fill="#fff" d="M0 0h172v40H0z"/></clipPath></defs></svg>